<?xml version="1.0" standalone="no"?>
<!DOCTYPE svg PUBLIC "-//W3C//DTD SVG 20010904//EN"
 "http://www.w3.org/TR/2001/REC-SVG-20010904/DTD/svg10.dtd">
<svg version="1.0" xmlns="http://www.w3.org/2000/svg"
 width="1200.000000pt" height="1200.000000pt" viewBox="0 0 1200.000000 1200.000000"
 preserveAspectRatio="xMidYMid meet">

<g transform="translate(0.000000,1200.000000) scale(0.100000,-0.100000)"
fill="#000000" stroke="none">
<path d="M8120 4892 c-46 -22 -75 -78 -105 -198 -13 -54 -30 -101 -36 -105
-10 -6 -10 -11 -1 -22 10 -12 7 -52 -13 -193 -49 -343 -62 -400 -88 -391 -6 2
-14 14 -17 27 -11 47 -69 52 -78 8 -10 -50 95 -66 147 -23 46 39 59 91 101
385 27 187 28 190 79 183 34 -5 41 -3 41 11 0 12 -10 16 -45 16 l-44 0 5 33
c27 164 53 240 91 265 21 13 23 12 40 -22 14 -30 22 -36 42 -34 13 2 29 11 35
21 9 15 6 21 -14 37 -31 24 -93 25 -140 2z"/>
<path d="M8715 4870 c-16 -11 -24 -20 -16 -20 15 0 12 -46 -10 -160 -5 -30
-14 -77 -18 -105 -5 -27 -20 -110 -34 -183 -29 -148 -26 -182 17 -182 29 0 82
39 53 40 -33 0 -33 -2 23 315 5 28 18 99 29 159 12 61 21 120 21 133 0 29 -24
30 -65 3z"/>
<path d="M5753 4825 c-17 -12 -22 -29 -28 -97 -4 -46 -8 -101 -10 -122 -7 -78
9 -57 50 65 63 185 60 169 33 169 -13 0 -33 -7 -45 -15z"/>
<path d="M2785 4803 c13 -32 33 -106 60 -223 14 -63 37 -161 51 -217 13 -57
24 -109 24 -118 0 -41 31 -3 93 115 38 72 70 130 72 130 2 0 13 -42 25 -92 33
-143 40 -168 49 -168 4 0 36 54 70 120 34 66 57 120 52 120 -6 0 -11 -4 -11
-10 0 -14 -62 -112 -67 -106 -8 8 -53 197 -53 223 0 28 72 172 107 214 l25 29
-37 0 c-31 0 -36 -3 -30 -19 3 -11 -3 -38 -15 -62 -11 -24 -20 -49 -20 -56 0
-7 -4 -13 -9 -13 -5 0 -13 -9 -16 -20 -3 -11 -10 -20 -14 -20 -9 0 -41 127
-41 164 0 25 -3 26 -50 26 -46 0 -50 -2 -41 -19 8 -15 46 -161 66 -255 5 -23
-84 -201 -95 -189 -18 20 -103 409 -96 439 6 23 5 24 -50 24 -49 0 -55 -2 -49
-17z"/>
<path d="M3413 4790 c10 -26 6 -39 -46 -140 -60 -115 -62 -120 -49 -120 4 0
32 50 62 111 30 61 70 126 88 145 l33 34 -50 0 -49 0 11 -30z"/>
<path d="M6493 4772 c0 -26 -11 -99 -22 -162 -12 -63 -28 -153 -37 -200 -25
-137 -33 -160 -57 -170 -16 -6 0 -9 56 -9 74 -1 77 0 65 19 -10 16 -7 49 15
182 65 382 63 378 123 378 28 0 44 -8 70 -34 31 -31 34 -39 34 -95 0 -73 -23
-126 -72 -166 l-33 -27 35 6 c110 20 191 164 143 256 -28 55 -69 69 -203 70
l-115 0 -2 -48z"/>
<path d="M4472 4788 c-7 -7 -12 -21 -12 -33 0 -12 5 -26 12 -33 7 -7 21 -12
33 -12 12 0 26 5 33 12 7 7 12 21 12 33 0 12 -5 26 -12 33 -7 7 -21 12 -33 12
-12 0 -26 -5 -33 -12z"/>
<path d="M4712 4788 c-7 -7 -12 -21 -12 -33 0 -12 5 -26 12 -33 7 -7 21 -12
33 -12 29 0 45 19 45 51 0 37 -51 54 -78 27z"/>
<path d="M8952 4788 c-17 -17 -15 -53 3 -68 8 -7 25 -10 40 -6 20 5 25 12 25
40 0 43 -39 63 -68 34z"/>
<path d="M7732 4630 c-7 -12 -24 -26 -38 -32 -19 -9 -24 -17 -20 -33 5 -20 0
-64 -26 -200 -21 -112 -9 -145 54 -145 30 0 102 32 114 51 5 8 1 8 -14 0 -34
-18 -70 -13 -86 12 -13 19 -13 35 5 136 11 63 24 121 28 129 6 10 26 15 61 16
36 1 55 6 58 15 4 11 -6 13 -52 8 l-56 -6 0 35 c0 39 -9 43 -28 14z"/>
<path d="M3628 4584 c-34 -18 -36 -26 -4 -18 62 15 96 -34 75 -107 -28 -92
-88 -171 -141 -184 -21 -6 -30 -2 -44 20 -15 23 -16 34 -6 87 6 33 21 78 32
100 28 53 20 58 -19 11 -73 -88 -111 -215 -76 -253 21 -24 65 -26 104 -6 28
15 82 70 113 116 16 24 16 23 11 -47 -6 -71 -5 -72 20 -78 16 -4 37 0 58 11
31 17 32 19 12 22 -30 4 -30 23 2 193 29 158 29 155 11 140 -11 -9 -20 -9 -35
-2 -28 15 -81 13 -113 -5z"/>
<path d="M3928 4569 c-18 -18 -25 -26 -16 -19 27 19 48 5 48 -32 0 -18 -11
-89 -25 -157 -14 -68 -25 -128 -25 -133 0 -5 14 -8 31 -6 30 3 32 5 54 95 13
50 28 100 34 111 15 27 15 53 0 32 -7 -11 -8 3 -4 48 8 70 -2 92 -41 92 -13 0
-38 -14 -56 -31z"/>
<path d="M4130 4584 c-14 -9 -34 -28 -45 -42 l-19 -26 31 22 c35 25 54 27 71
10 14 -14 16 -69 3 -118 -26 -102 -34 -179 -21 -195 17 -21 53 -19 81 5 l24
19 -24 1 c-23 0 -23 1 -16 66 4 36 11 79 16 97 5 18 9 60 9 94 0 51 -3 64 -19
73 -28 14 -62 12 -91 -6z"/>
<path d="M4425 4583 l-30 -17 25 -6 c21 -5 25 -12 24 -41 -1 -43 -69 -429 -86
-488 -17 -55 -35 -63 -51 -22 -9 24 -17 31 -38 31 -35 0 -44 -25 -19 -50 13
-13 33 -20 59 -20 59 0 96 36 121 118 28 95 82 416 78 465 -3 37 -6 42 -28 44
-14 2 -38 -5 -55 -14z"/>
<path d="M4684 4590 c-32 -13 -39 -30 -13 -30 21 0 21 -3 15 -57 -3 -32 -11
-80 -16 -108 -6 -27 -13 -76 -17 -107 -4 -48 -3 -59 11 -64 22 -8 59 2 87 25
l24 19 -26 -5 c-18 -3 -28 0 -33 12 -3 9 -4 20 -2 23 2 4 14 67 26 140 27 159
18 182 -56 152z"/>
<path d="M4915 4579 c-29 -20 -29 -20 -5 -17 22 3 25 -1 28 -34 3 -30 -24
-200 -45 -286 -5 -21 -3 -23 27 -20 32 3 33 5 60 98 14 52 30 106 34 120 6 20
5 22 -4 10 -8 -11 -9 2 -4 53 9 97 -22 123 -91 76z"/>
<path d="M5078 4573 c-14 -16 -34 -44 -43 -63 l-17 -35 34 39 34 39 27 -18
c45 -29 87 7 52 45 -25 28 -57 25 -87 -7z"/>
<path d="M5278 4582 c-33 -20 -37 -32 -8 -25 31 8 32 -14 10 -126 -32 -164
-24 -211 36 -211 53 0 103 41 148 120 28 50 31 45 15 -29 -18 -86 26 -120 88
-67 25 23 26 24 6 19 -35 -8 -37 28 -8 176 14 73 24 140 21 147 -9 22 -45 16
-55 -8 -5 -13 -17 -53 -26 -89 -34 -136 -105 -240 -154 -224 -28 8 -28 63 -2
199 21 108 17 136 -22 136 -12 0 -34 -8 -49 -18z"/>
<path d="M5960 4558 c33 -35 44 -41 58 -32 47 30 10 74 -64 74 l-35 0 41 -42z"/>
<path d="M6970 4574 c-101 -56 -154 -214 -100 -302 52 -85 197 -63 267 41 119
177 4 357 -167 261z m88 0 c36 -25 52 -68 52 -137 0 -120 -46 -202 -111 -195
-26 2 -38 11 -53 38 -46 79 -12 265 54 297 32 16 31 16 58 -3z"/>
<path d="M7305 4580 l-30 -20 26 0 c15 0 29 -6 32 -13 4 -11 -12 -115 -47
-299 -5 -26 -3 -28 25 -28 16 0 31 6 34 13 2 6 15 54 29 105 30 109 70 198 92
206 8 3 26 -1 39 -10 44 -29 84 9 50 46 -42 47 -87 17 -142 -95 -19 -38 -32
-62 -29 -53 11 37 18 118 12 142 -8 33 -47 35 -91 6z"/>
<path d="M8314 4581 c-99 -45 -164 -204 -119 -291 23 -45 62 -70 109 -70 94 0
184 81 206 186 16 75 6 120 -35 161 -27 27 -40 33 -76 33 -24 0 -62 -9 -85
-19z m98 -22 c48 -56 44 -196 -10 -278 -25 -39 -30 -42 -66 -39 -33 3 -42 9
-58 38 -26 48 -22 187 8 246 34 64 87 78 126 33z"/>
<path d="M8909 4580 l-24 -19 23 -1 c28 0 28 -9 2 -140 -12 -56 -20 -123 -18
-149 3 -41 6 -46 29 -49 15 -2 36 6 50 17 l24 20 -22 1 c-28 0 -30 24 -8 125
25 118 30 196 14 206 -22 14 -45 11 -70 -11z"/>
<path d="M9260 4589 c-12 -8 -10 -9 8 -4 18 5 31 -1 58 -31 l35 -37 -4 -96
c-2 -53 -8 -109 -12 -126 l-8 -30 23 20 c29 26 48 65 65 129 26 100 -27 186
-115 186 -19 0 -42 -5 -50 -11z"/>
<path d="M5862 4563 c-16 -6 -42 -57 -42 -83 0 -12 27 -47 66 -85 66 -65 67
-66 61 -111 l-5 -45 24 22 c13 12 28 37 34 55 14 42 -1 73 -65 133 -49 47 -68
81 -59 106 7 16 6 16 -14 8z"/>
<path d="M9168 4531 c-38 -40 -68 -118 -68 -179 0 -67 51 -132 105 -132 19 0
20 24 1 39 -16 13 -36 86 -36 128 0 44 29 145 47 165 13 14 13 18 2 18 -8 0
-31 -18 -51 -39z"/>
<path d="M3297 4513 c-4 -3 -7 -13 -7 -22 1 -13 3 -13 11 2 11 19 8 33 -4 20z"/>
<path d="M4050 4499 c0 -5 5 -7 10 -4 6 3 10 8 10 11 0 2 -4 4 -10 4 -5 0 -10
-5 -10 -11z"/>
<path d="M5780 4291 c-13 -26 -5 -46 26 -60 26 -12 67 -15 76 -6 7 8 -65 85
-79 85 -7 0 -17 -9 -23 -19z"/>
<path d="M4577 3403 c3 -49 7 -90 9 -92 2 -2 4 37 4 87 0 51 -4 92 -9 92 -5 0
-6 -39 -4 -87z"/>
<path d="M4651 3474 c0 -11 3 -14 6 -6 3 7 2 16 -1 19 -3 4 -6 -2 -5 -13z"/>
<path d="M5784 3400 c0 -52 1 -74 3 -47 2 26 2 68 0 95 -2 26 -3 4 -3 -48z"/>
<path d="M6470 3479 c0 -7 26 -42 57 -78 31 -36 60 -70 65 -75 4 -5 10 -7 14
-4 5 6 -122 168 -132 168 -2 0 -4 -5 -4 -11z"/>
<path d="M6900 3486 c0 -2 8 -10 18 -17 15 -13 16 -12 3 4 -13 16 -21 21 -21
13z"/>
<path d="M7100 3399 c0 -57 4 -88 10 -84 6 3 10 44 10 91 0 49 -4 84 -10 84
-6 0 -10 -37 -10 -91z"/>
<path d="M7290 3485 c0 -10 135 -165 143 -165 13 0 8 8 -58 92 -51 65 -85 94
-85 73z"/>
<path d="M7430 3479 c0 -5 5 -7 10 -4 6 3 10 8 10 11 0 2 -4 4 -10 4 -5 0 -10
-5 -10 -11z"/>
<path d="M7620 3400 c0 -49 3 -90 8 -90 4 0 7 41 7 90 0 50 -3 90 -7 90 -5 0
-8 -40 -8 -90z"/>
<path d="M7695 3480 c3 -5 8 -10 11 -10 2 0 4 5 4 10 0 6 -5 10 -11 10 -5 0
-7 -4 -4 -10z"/>
<path d="M7879 3398 c5 -93 8 -86 13 30 2 36 -1 62 -7 62 -6 0 -8 -34 -6 -92z"/>
<path d="M7955 3480 c3 -5 8 -10 11 -10 2 0 4 5 4 10 0 6 -5 10 -11 10 -5 0
-7 -4 -4 -10z"/>
<path d="M8140 3400 c0 -49 4 -90 8 -90 5 0 9 41 10 90 2 56 -1 90 -8 90 -6 0
-10 -35 -10 -90z"/>
<path d="M4074 3458 c9 -12 16 -42 16 -66 0 -26 4 -41 10 -37 27 16 -1 125
-31 125 -6 0 -3 -10 5 -22z"/>
<path d="M4274 3395 c-1 -47 2 -85 7 -85 5 0 9 38 9 85 0 47 -3 85 -7 85 -5 0
-9 -38 -9 -85z"/>
<path d="M4826 3423 c35 -81 47 -104 52 -98 6 6 -60 155 -69 155 -4 0 3 -26
17 -57z"/>
<path d="M4880 3474 c0 -3 14 -35 30 -71 17 -35 30 -69 30 -74 0 -5 5 -9 10
-9 14 0 14 -2 -25 84 -30 67 -45 90 -45 70z"/>
<path d="M5475 3395 c0 -47 3 -85 8 -85 4 0 7 38 7 85 0 47 -3 85 -7 85 -5 0
-8 -38 -8 -85z"/>
<path d="M5550 3461 c0 -11 5 -23 10 -26 6 -3 10 3 10 14 0 11 -4 23 -10 26
-5 3 -10 -3 -10 -14z"/>
<path d="M6214 3395 c0 -49 1 -71 3 -48 2 23 2 64 0 90 -2 26 -3 8 -3 -42z"/>
<path d="M8218 3453 c5 -21 7 -23 10 -9 2 10 0 22 -6 28 -6 6 -7 0 -4 -19z"/>
<path d="M5220 3465 c0 -11 63 -126 66 -122 6 6 -50 127 -58 127 -5 0 -8 -2
-8 -5z"/>
<path d="M3690 3445 c0 -12 15 -30 36 -45 20 -13 40 -33 44 -45 7 -16 9 -16 9
-3 1 18 -24 48 -40 48 -5 0 -18 15 -29 33 -16 25 -20 28 -20 12z"/>
<path d="M3936 3444 c-12 -32 -6 -82 14 -105 23 -29 24 -26 6 26 -8 22 -12 52
-9 68 6 29 -1 37 -11 11z"/>
<path d="M6770 3425 c-10 -30 -9 -40 7 -67 10 -17 25 -34 33 -36 11 -4 10 0
-4 16 -14 16 -17 33 -15 71 5 59 -5 66 -21 16z"/>
<path d="M5530 3393 c0 -7 14 -27 31 -45 16 -18 26 -24 20 -13 -17 33 -51 71
-51 58z"/>
<path d="M8196 3388 c18 -33 57 -79 61 -74 3 3 -6 19 -21 36 -14 17 -26 36
-26 41 0 5 -5 9 -11 9 -5 0 -7 -6 -3 -12z"/>
<path d="M6910 3344 c0 -21 4 -33 10 -29 6 3 10 19 10 36 0 16 -4 29 -10 29
-5 0 -10 -16 -10 -36z"/>
</g>
</svg>
